<svg width="120" height="120" viewBox="0 0 120 120" fill="none" xmlns="http://www.w3.org/2000/svg">
<rect width="120" height="120" fill="#22252F"/>
<path d="M104.801 77.1645H104.763L98.6508 45.5309C98.6508 45.4935 98.6508 45.4935 98.6133 45.456C97.6736 40.2804 94.9442 35.5981 90.9009 32.2253C86.8576 28.8526 81.7568 27.0033 76.4876 27L43.4867 27.1123C38.1929 27.1042 33.0664 28.9627 29.0115 32.3599C24.9566 35.7571 22.2338 40.4748 21.3235 45.6807V45.7555L15.2108 77.1271C14.8981 78.8703 14.9336 80.6581 15.3153 82.3877C15.697 84.1172 16.4173 85.7544 17.4349 87.2051C18.4525 88.6558 19.7473 89.8914 21.2449 90.841C22.7424 91.7905 24.4132 92.4352 26.1612 92.7379C26.927 92.8886 27.7057 92.9638 28.4862 92.9626C32.0669 92.9551 35.5012 91.5434 38.049 89.0318L38.199 88.8446L53.462 71.9983L66.5499 71.9234L81.7753 88.882L81.9628 89.0692C84.4922 91.5855 87.9172 92.9988 91.4881 93C92.2809 92.9995 93.072 92.9243 93.8507 92.7754C97.3716 92.1453 100.5 90.1498 102.551 87.2248C104.603 84.2997 105.412 80.6829 104.801 77.1645V77.1645ZM50.9869 52.5689H47.9868V55.5638C47.9868 56.3581 47.6707 57.1199 47.1081 57.6815C46.5455 58.2432 45.7824 58.5587 44.9867 58.5587C44.191 58.5587 43.428 58.2432 42.8653 57.6815C42.3027 57.1199 41.9866 56.3581 41.9866 55.5638V52.5689H38.9865C38.1909 52.5689 37.4278 52.2534 36.8652 51.6917C36.3025 51.1301 35.9865 50.3683 35.9865 49.574C35.9865 48.7797 36.3025 48.018 36.8652 47.4563C37.4278 46.8947 38.1909 46.5791 38.9865 46.5791H41.9866V43.5842C41.9866 42.7899 42.3027 42.0282 42.8653 41.4665C43.428 40.9049 44.191 40.5893 44.9867 40.5893C45.7824 40.5893 46.5455 40.9049 47.1081 41.4665C47.6707 42.0282 47.9868 42.7899 47.9868 43.5842V46.5791H50.9869C51.7826 46.5791 52.5456 46.8947 53.1083 47.4563C53.6709 48.018 53.987 48.7797 53.987 49.574C53.987 50.3683 53.6709 51.1301 53.1083 51.6917C52.5456 52.2534 51.7826 52.5689 50.9869 52.5689ZM65.9873 49.574C65.9873 48.7797 66.3034 48.018 66.866 47.4563C67.4287 46.8947 68.1918 46.5791 68.9874 46.5791H80.9878C81.7835 46.5791 82.5465 46.8947 83.1092 47.4563C83.6718 48.018 83.9879 48.7797 83.9879 49.574C83.9879 50.3683 83.6718 51.1301 83.1092 51.6917C82.5465 52.2534 81.7835 52.5689 80.9878 52.5689H68.9874C68.1918 52.5689 67.4287 52.2534 66.866 51.6917C66.3034 51.1301 65.9873 50.3683 65.9873 49.574ZM92.8006 86.8979C91.6245 87.1039 90.4162 87.0281 89.2752 86.6766C88.1343 86.3252 87.0932 85.7081 86.2379 84.8763L74.5751 71.9609H76.4876C80.315 71.9645 84.0801 70.9935 87.4268 69.1397C90.7734 67.2858 93.5911 64.6104 95.6132 61.3664L98.8758 78.2876C99.203 80.2322 98.7485 82.2272 97.6111 83.8393C96.4736 85.4514 94.745 86.5505 92.8006 86.8979Z" fill="#AE92E9"/>
</svg>
